<?xml version="1.0" standalone="no"?>
<!DOCTYPE svg PUBLIC "-//W3C//DTD SVG 20010904//EN"
 "http://www.w3.org/TR/2001/REC-SVG-20010904/DTD/svg10.dtd">
<svg version="1.0" xmlns="http://www.w3.org/2000/svg"
 width="1820.000000pt" height="413.000000pt" viewBox="0 0 1820.000000 413.000000"
 preserveAspectRatio="xMidYMid meet">
<metadata>
Created by potrace 1.16, written by Peter Selinger 2001-2019
</metadata>
<g transform="translate(0.000000,413.000000) scale(0.100000,-0.100000)"
fill="#000000" stroke="none">
<path d="M9393 4043 c-10 -3 -13 -51 -13 -189 0 -101 -4 -184 -8 -184 -5 0
-12 -57 -15 -127 -4 -71 -21 -351 -37 -623 -17 -272 -35 -630 -41 -795 -5
-164 -13 -302 -18 -305 -5 -3 -12 -81 -15 -175 -14 -378 -29 -660 -37 -665
-13 -9 -32 -644 -19 -648 6 -2 19 -12 28 -22 15 -17 62 -37 200 -87 23 -8 42
-19 42 -24 0 -5 19 -9 42 -9 54 0 221 -32 229 -43 9 -12 369 -12 378 0 7 10
123 32 211 41 30 2 60 11 68 18 7 8 20 14 27 14 24 0 190 72 205 89 8 10 71
41 81 41 6 0 22 14 36 30 14 17 38 37 53 45 16 8 31 24 35 35 3 11 12 20 19
20 22 0 156 164 156 191 0 9 7 19 15 23 8 3 15 14 15 25 0 21 20 72 31 81 39
29 39 440 1 440 -10 0 -32 60 -32 84 0 9 -7 19 -15 22 -8 4 -15 13 -15 21 0
14 -36 67 -70 105 -27 30 -36 43 -42 60 -4 9 -17 18 -30 20 -15 2 -28 15 -37
36 -8 17 -21 32 -28 32 -7 0 -13 5 -13 10 0 6 -6 10 -13 10 -7 0 -24 13 -37
30 -14 16 -30 29 -36 30 -18 0 -76 32 -95 51 -11 11 -25 19 -32 19 -8 0 -24 9
-37 20 -13 11 -35 23 -49 26 -14 3 -63 19 -109 35 -46 16 -91 29 -101 29 -10
0 -28 9 -41 20 -13 11 -18 20 -12 20 6 0 17 12 24 28 9 18 22 28 41 30 17 2
27 9 27 20 1 9 21 33 46 52 24 19 47 45 50 57 3 11 14 23 25 26 11 3 24 19 30
36 6 17 15 31 20 31 5 0 9 5 9 12 0 6 6 19 14 27 23 27 63 106 71 139 3 18 10
32 13 32 4 0 16 28 27 63 10 34 24 65 30 69 14 10 14 476 -1 486 -12 8 -44
117 -44 150 0 12 -4 22 -8 22 -5 0 -14 24 -21 54 -13 56 -69 175 -95 202 -9 8
-16 22 -16 29 0 8 -8 20 -18 27 -11 7 -31 32 -45 55 -14 23 -39 49 -55 58 -15
9 -34 30 -41 45 -7 17 -21 30 -34 32 -12 2 -26 13 -32 25 -5 12 -25 30 -43 40
-19 10 -48 32 -66 48 -18 17 -54 41 -82 55 -27 14 -50 28 -52 32 -2 4 -27 15
-55 24 -28 9 -57 22 -63 28 -6 6 -45 18 -87 25 -43 8 -77 17 -77 20 0 26 -270
63 -317 44z m275 -1028 c2 -22 7 -44 11 -50 5 -5 16 -52 26 -102 9 -51 24 -98
31 -104 8 -6 14 -17 14 -23 0 -6 10 -22 23 -36 12 -14 30 -37 40 -52 10 -16
24 -28 31 -28 7 0 19 -7 26 -15 8 -9 29 -15 55 -15 25 0 46 -5 49 -12 5 -10 7
-10 12 0 3 6 19 12 35 12 22 0 43 12 75 42 24 23 44 47 44 55 0 7 7 16 15 19
8 4 15 16 15 28 0 13 3 26 7 30 10 10 32 96 33 129 0 15 5 27 10 27 6 0 10 23
10 51 0 49 1 50 28 47 l27 -3 -2 -78 c-1 -66 1 -81 18 -98 10 -10 24 -19 29
-19 6 0 22 -12 35 -26 20 -22 22 -29 12 -45 -12 -19 -47 -27 -47 -10 0 12 -66
34 -78 27 -5 -3 -12 -23 -16 -45 -4 -24 -17 -51 -33 -67 l-27 -27 25 -21 c13
-12 33 -40 43 -63 10 -24 23 -43 28 -43 4 0 8 -6 8 -14 0 -13 -20 -26 -40 -26
-12 0 -70 60 -70 72 0 6 -8 16 -17 23 -14 11 -23 10 -48 -2 -16 -9 -34 -22
-38 -29 -4 -8 -25 -17 -45 -20 l-37 -6 4 -80 3 -80 -28 4 c-25 3 -29 8 -32 38
-7 105 -12 121 -43 132 -16 5 -27 14 -24 18 3 5 -11 14 -30 20 -19 6 -35 17
-35 25 0 7 -9 15 -19 18 -17 4 -22 -3 -32 -45 -15 -56 -30 -72 -59 -63 -15 5
-20 15 -20 41 0 19 4 34 9 34 5 0 15 24 22 53 12 54 2 97 -21 97 -6 0 -10 11
-10 25 0 38 -44 30 -51 -10 -3 -14 -13 -21 -37 -23 -30 -3 -32 -1 -32 28 0 23
5 33 20 37 11 3 20 12 20 20 0 7 7 25 16 38 13 20 15 40 9 108 -9 101 -2 129
28 125 18 -2 23 -11 25 -43z m574 -1428 c7 -7 31 -19 54 -26 29 -9 52 -28 80
-63 21 -28 44 -55 50 -62 19 -20 32 -50 39 -93 4 -24 11 -43 16 -43 5 0 9 -60
9 -135 0 -74 -4 -135 -9 -135 -5 0 -11 -19 -15 -42 -8 -54 -28 -108 -38 -108
-4 0 -17 -20 -29 -44 -23 -51 -100 -136 -121 -136 -8 0 -23 -8 -32 -19 -21
-24 -124 -44 -173 -35 -61 11 -133 49 -167 86 -12 12 -30 42 -40 66 -11 23
-22 42 -26 42 -4 0 -14 15 -21 33 -20 46 -19 355 1 420 8 26 18 47 21 47 9 0
39 58 39 74 0 17 118 136 135 136 20 0 65 22 65 31 0 19 143 25 162 6z"/>
<path d="M10150 1532 c0 -4 -20 -14 -45 -21 -25 -7 -45 -17 -45 -22 0 -5 -6
-9 -13 -9 -12 0 -70 -51 -92 -81 -5 -8 -20 -35 -33 -61 -13 -27 -27 -48 -31
-48 -5 0 -12 -37 -17 -82 -16 -159 -3 -327 26 -346 16 -10 22 0 55 79 21 49
41 89 45 89 3 0 24 16 46 35 21 19 44 35 51 35 6 0 13 5 15 12 3 9 46 12 156
13 l152 0 0 34 c0 46 -19 159 -33 196 -10 28 -47 84 -73 112 -17 18 -83 53
-99 53 -8 0 -15 5 -15 10 0 6 -11 10 -25 10 -14 0 -25 -4 -25 -8z"/>
<path d="M1822 3860 c-49 -46 -52 -97 -19 -270 9 -47 23 -125 31 -175 28 -173
67 -381 103 -555 20 -96 40 -211 43 -255 4 -44 21 -147 38 -230 65 -320 86
-434 98 -535 6 -58 28 -178 48 -268 20 -90 36 -176 36 -191 0 -34 34 -140 67
-208 31 -63 136 -167 192 -189 23 -9 41 -19 41 -23 0 -4 15 -15 34 -23 43 -21
266 -95 310 -103 l33 -7 8 -171 c13 -278 13 -318 -7 -330 -11 -8 -44 -7 -111
2 -107 15 -126 10 -157 -42 -26 -42 -25 -78 3 -109 37 -43 66 -51 192 -56 107
-4 125 -2 160 16 49 24 75 53 106 112 21 41 23 56 21 170 -1 69 -8 179 -16
245 -7 66 -12 122 -10 124 2 2 48 -1 101 -8 177 -22 480 -33 651 -24 90 4 166
5 168 1 3 -4 7 -88 10 -185 8 -290 27 -347 142 -426 65 -45 78 -50 154 -59 95
-11 161 -5 196 18 30 20 52 71 45 107 -9 45 -45 61 -149 68 -82 5 -99 10 -143
38 -44 29 -51 38 -60 82 -6 28 -11 125 -11 217 l0 167 132 19 c73 10 162 22
198 26 138 16 311 75 368 126 20 19 40 34 44 34 13 0 88 147 88 172 0 14 16
95 35 181 19 86 35 176 35 200 0 24 18 124 40 222 22 98 40 187 40 199 0 11
11 75 25 141 13 66 31 165 40 220 9 55 34 186 56 290 21 105 43 224 49 265 6
41 22 129 36 195 13 66 24 130 24 142 0 12 16 91 36 175 39 168 59 339 44 368
-5 10 -30 26 -54 35 -46 18 -62 14 -108 -23 -20 -17 -81 -105 -136 -196 -9
-15 -34 -49 -54 -74 -21 -26 -38 -52 -38 -59 0 -6 -16 -32 -35 -57 -19 -26
-35 -50 -35 -54 0 -4 -14 -22 -30 -40 -16 -19 -34 -49 -40 -68 -6 -19 -15 -34
-19 -34 -10 0 -101 -136 -101 -150 0 -5 -4 -10 -9 -10 -5 0 -12 -9 -16 -20 -3
-11 -22 -38 -41 -61 -19 -23 -41 -56 -48 -74 -8 -17 -28 -47 -45 -67 -17 -20
-31 -40 -31 -45 0 -4 -13 -24 -29 -44 -17 -20 -33 -48 -37 -63 -3 -14 -12 -30
-18 -34 -7 -4 -32 -36 -57 -73 -60 -89 -68 -101 -78 -124 -5 -11 -22 -34 -38
-52 -16 -18 -39 -52 -51 -75 -11 -24 -29 -52 -39 -63 -10 -11 -24 -32 -32 -47
-7 -14 -26 -40 -42 -58 -16 -17 -29 -39 -29 -49 0 -9 -13 -30 -29 -45 l-28
-27 -12 33 c-7 18 -23 57 -37 86 -13 29 -24 61 -24 72 0 10 -4 22 -10 25 -5 3
-10 15 -10 26 0 11 -16 51 -35 88 -19 38 -49 109 -66 158 -17 48 -40 111 -49
138 -10 28 -32 77 -48 110 -16 33 -33 76 -37 95 -4 19 -21 63 -37 98 -16 35
-33 74 -38 87 -5 13 -21 31 -35 41 -23 15 -27 15 -49 0 -23 -14 -96 -150 -96
-176 0 -6 -26 -66 -59 -133 -32 -67 -62 -133 -65 -147 -4 -14 -20 -52 -35 -85
-16 -33 -47 -98 -69 -145 -22 -47 -43 -97 -46 -111 -3 -15 -22 -55 -41 -89
-19 -34 -35 -67 -35 -73 0 -7 -9 -27 -20 -45 -11 -18 -20 -41 -20 -50 0 -25
-23 -53 -35 -44 -12 9 -61 83 -91 137 -11 22 -30 57 -41 77 -11 20 -37 59 -57
87 -20 28 -36 59 -36 70 0 10 -7 24 -15 31 -13 11 -100 151 -136 221 -8 14
-26 45 -42 68 -29 44 -79 129 -99 171 -7 14 -29 48 -49 75 -19 28 -39 62 -42
76 -4 14 -18 38 -32 55 -14 16 -28 39 -31 52 -4 12 -10 22 -14 22 -4 0 -24 33
-44 74 -20 40 -48 86 -61 102 -14 16 -39 57 -56 91 -17 34 -37 67 -45 74 -8 6
-14 18 -14 26 0 8 -12 29 -26 46 -14 17 -39 58 -55 91 -16 33 -33 62 -38 65
-5 4 -17 22 -27 42 -46 87 -80 130 -120 149 -55 27 -76 25 -112 -10z m2983
-1234 c6 -74 10 -87 35 -111 23 -22 34 -26 59 -20 17 4 33 15 36 26 4 10 10
19 15 19 5 0 21 20 36 45 27 47 41 55 50 30 7 -18 -14 -75 -27 -75 -5 0 -9 -6
-9 -14 0 -17 -51 -62 -81 -71 -12 -4 -40 -4 -63 -1 -34 5 -45 13 -58 39 -25
47 -38 105 -38 165 0 44 3 52 19 52 16 0 20 -11 26 -84z m-2274 -72 c9 -11 13
-42 13 -89 -1 -57 -5 -79 -22 -103 -12 -16 -22 -35 -22 -40 0 -14 -25 -22 -67
-22 -29 0 -43 8 -80 48 -51 54 -78 103 -88 155 -6 32 -5 37 11 37 14 0 30 -24
58 -80 32 -64 47 -83 75 -96 31 -15 38 -15 61 -3 24 14 25 20 28 112 1 53 7
97 11 97 5 0 15 -7 22 -16z m1276 -466 c51 -47 14 -137 -50 -124 -42 9 -48 16
-49 65 -1 73 51 104 99 59z m663 -308 c0 -35 48 -117 82 -142 24 -16 47 -23
83 -24 40 0 51 -4 53 -19 2 -9 -2 -21 -10 -26 -18 -12 -85 -11 -108 1 -16 9
-29 -2 -90 -72 -68 -78 -133 -136 -230 -204 -62 -43 -245 -134 -270 -134 -12
0 -33 -6 -48 -14 -89 -44 -346 -82 -490 -71 -97 7 -260 43 -311 70 -17 8 -38
15 -47 15 -9 0 -45 18 -80 40 -35 22 -68 40 -73 40 -6 0 -46 36 -90 80 -56 56
-88 98 -109 144 l-30 64 -40 -5 c-26 -3 -51 1 -76 12 -61 29 -41 64 22 38 67
-28 142 25 142 100 0 36 21 64 40 52 13 -8 13 -81 -1 -108 -6 -12 -20 -31 -30
-43 -22 -24 -14 -69 20 -105 12 -13 21 -28 21 -34 0 -6 17 -27 38 -46 21 -19
41 -43 45 -52 3 -9 12 -17 19 -17 7 0 28 -14 46 -30 34 -30 168 -98 232 -118
39 -12 194 -38 280 -47 88 -9 320 19 425 52 121 37 263 100 293 130 7 7 20 13
27 13 35 0 234 187 289 272 16 25 16 27 -1 40 -37 27 -77 141 -56 161 14 14
33 6 33 -13z"/>
<path d="M8765 2346 c-16 -7 -41 -24 -54 -36 -47 -46 -49 -63 -43 -382 l5
-299 -59 8 c-116 16 -293 8 -377 -15 -234 -66 -418 -202 -496 -366 -62 -132
-98 -322 -88 -465 23 -312 176 -513 443 -581 192 -49 431 -8 592 102 l44 30
36 -35 c43 -40 64 -52 111 -61 51 -9 105 10 140 49 26 30 31 44 31 89 0 42 -6
62 -30 97 l-30 44 0 860 0 860 -25 38 c-14 20 -39 44 -55 52 -44 23 -110 28
-145 11z m-203 -1001 c34 -4 67 -14 82 -26 l26 -20 0 -309 0 -308 -68 -51
c-38 -28 -100 -65 -138 -83 -64 -30 -77 -33 -169 -33 -85 0 -107 4 -149 24
-83 41 -151 128 -170 217 -21 98 4 266 55 366 43 84 143 169 239 203 48 17
169 34 210 29 14 -2 51 -6 82 -9z"/>
<path d="M14214 2346 c-38 -17 -71 -57 -85 -105 -7 -24 -9 -340 -7 -976 3
-921 3 -941 23 -974 29 -50 97 -84 158 -78 51 4 88 26 121 71 20 26 21 44 26
359 5 324 6 332 25 332 22 0 94 -74 315 -325 233 -266 332 -373 366 -398 72
-53 166 -48 222 12 38 42 43 96 13 162 -11 24 -149 186 -325 382 -168 188
-306 345 -306 349 0 4 22 24 47 43 128 97 383 366 416 439 46 104 -22 201
-140 201 -73 -1 -111 -29 -261 -194 -142 -155 -237 -244 -325 -305 l-46 -32
-3 473 -3 473 -23 33 c-46 63 -137 89 -208 58z"/>
<path d="M7291 1739 c-61 -12 -181 -70 -257 -124 l-63 -45 -48 30 c-26 16 -78
37 -115 46 -57 14 -74 15 -113 4 -128 -36 -142 -179 -25 -256 l40 -27 0 -537
0 -537 23 -33 c52 -77 129 -99 206 -58 25 13 54 36 65 51 20 28 21 42 24 497
l3 469 87 76 c108 95 208 156 265 162 36 4 48 0 86 -29 116 -88 133 -98 172
-98 111 0 178 84 149 188 -14 55 -94 133 -174 172 -113 55 -216 70 -325 49z"/>
<path d="M17601 1739 c-61 -12 -181 -70 -257 -124 l-63 -45 -48 30 c-26 16
-78 37 -115 46 -57 14 -74 15 -113 4 -128 -36 -142 -179 -25 -256 l40 -27 0
-537 0 -537 23 -33 c33 -50 70 -72 124 -77 55 -4 112 22 147 70 20 28 21 41
26 498 l5 470 85 75 c105 93 206 155 263 161 36 4 48 0 86 -29 116 -88 133
-98 172 -98 111 0 178 84 149 188 -14 55 -94 133 -174 172 -113 55 -216 70
-325 49z"/>
<path d="M13290 1701 c-66 -18 -171 -64 -225 -98 l-30 -19 -20 30 c-62 92
-190 104 -261 24 -44 -48 -44 -60 -38 -702 7 -669 6 -654 67 -698 44 -32 122
-36 175 -9 77 39 76 35 82 481 l5 395 27 56 c15 30 52 82 83 116 93 103 191
153 303 154 64 1 92 -20 119 -90 15 -41 18 -102 23 -548 5 -489 6 -502 26
-530 11 -15 36 -39 55 -51 28 -20 44 -23 92 -20 61 5 95 23 131 72 20 27 21
44 28 529 4 331 3 522 -3 562 -29 167 -152 297 -328 349 -74 22 -227 20 -311
-3z"/>
<path d="M11950 1680 c-168 -36 -250 -82 -410 -229 -297 -274 -408 -665 -272
-962 56 -123 179 -228 317 -272 59 -19 92 -22 210 -21 193 1 284 24 400 104
l41 28 48 -55 c27 -30 60 -59 74 -64 41 -16 116 -13 151 6 89 45 93 139 12
281 -28 49 -57 110 -65 134 -25 77 -38 283 -37 610 l0 314 -24 42 c-31 52 -59
70 -137 89 -83 20 -204 18 -308 -5z m137 -552 c1 -205 5 -312 17 -387 9 -57
13 -108 10 -113 -16 -25 -170 -129 -207 -139 -23 -6 -73 -9 -112 -7 -87 4
-156 37 -202 97 -145 187 9 621 267 751 70 36 185 79 210 80 14 0 16 -34 17
-282z"/>
<path d="M5813 1675 c-224 -41 -446 -229 -563 -477 -68 -147 -85 -222 -85
-388 1 -130 3 -153 28 -225 66 -198 203 -346 382 -415 88 -34 261 -35 360 -2
155 52 277 142 383 282 70 92 101 149 139 250 137 361 0 788 -299 934 -111 54
-210 66 -345 41z m184 -296 c34 -11 112 -88 137 -137 50 -97 62 -274 26 -400
-38 -135 -109 -252 -198 -325 -69 -58 -99 -70 -184 -75 -69 -4 -84 -2 -132 22
-88 43 -135 122 -156 260 -32 215 60 459 222 587 105 83 177 100 285 68z"/>
<path d="M16082 1679 c-188 -33 -409 -150 -522 -276 -153 -171 -207 -476 -129
-723 57 -179 191 -350 329 -418 192 -94 413 -96 660 -5 113 42 274 124 313
161 74 69 75 144 2 212 -21 20 -38 25 -93 28 -60 3 -73 0 -122 -28 -272 -153
-438 -191 -574 -131 -75 33 -184 149 -160 170 5 5 70 23 144 41 384 93 579
178 699 305 85 90 112 178 91 295 -29 160 -149 300 -305 354 -59 21 -253 30
-333 15z m222 -290 c54 -15 92 -56 101 -107 17 -100 -69 -148 -461 -262 -114
-33 -212 -60 -217 -60 -18 0 2 102 34 171 60 130 181 210 381 254 79 17 113
18 162 4z"/>
<path d="M232 1187 c-20 -21 -22 -34 -22 -150 l0 -127 -45 0 c-54 0 -101 -21
-110 -50 -16 -51 31 -90 110 -90 l45 0 0 -249 c0 -137 3 -257 6 -266 9 -23 61
-47 87 -39 57 17 57 15 57 296 l0 258 76 0 c70 0 78 2 104 29 34 33 31 61 -8
91 -19 16 -40 20 -98 20 l-74 0 0 128 c0 121 -1 130 -23 150 -31 29 -77 29
-105 -1z"/>
<path d="M715 1175 l-25 -24 0 -449 0 -449 23 -21 c31 -29 77 -29 105 1 21 22
22 33 22 184 l0 161 46 56 c84 102 154 125 205 68 41 -46 49 -89 49 -267 0
-173 6 -199 51 -224 37 -20 84 0 98 41 13 37 14 269 2 355 -19 132 -91 231
-189 259 -68 20 -124 12 -198 -27 -31 -16 -58 -29 -60 -29 -2 0 -4 77 -4 170
0 168 0 171 -25 195 -13 14 -36 25 -50 25 -14 0 -37 -11 -50 -25z"/>
<path d="M1700 895 c-78 -24 -172 -87 -208 -140 -73 -107 -82 -250 -23 -369
90 -184 286 -228 514 -116 76 37 100 59 100 95 0 34 -19 53 -57 61 -26 4 -49
-3 -113 -36 -121 -62 -217 -64 -271 -7 -39 42 -33 46 93 83 202 58 291 115
314 201 10 39 3 91 -17 130 -19 35 -100 100 -133 107 -52 10 -151 6 -199 -9z
m192 -147 c4 -7 8 -25 8 -40 0 -23 -8 -32 -48 -52 -52 -26 -261 -90 -269 -82
-9 8 19 80 43 112 55 74 232 115 266 62z"/>
</g>
</svg>
